# xmcd
#
# Track frame offsets:
#	150
#	12772
#	25991
#	37717
#	62265
#	74905
#	87417
#	99240
#	112118
#	125426
#	133954
#	147613
#	160409
#	173089
#	184642
#	196250
#	206809
#	220493
#	231443
#	245590
#
# Disc length: 3440 seconds
#
# Revision: 0
# Processed by: cddbd v1.5.2PL0 Copyright (c) Steve Scherf et al.
# Submitted via: dBpowerAMP V4.0
#
DISCID=2c0d6e14
DTITLE=Greatest Blues Shouters - 1944-55 (2)
DYEAR=2007
DGENRE=Blues
TTITLE0=Jimmy Wintherspoon - Spoon calls hottie
TTITLE1=Jimmy Wintherspoon - Blues in trouble
TTITLE2=Jimmy Wintherspoon - Two little girls
TTITLE3=Jimmy Wintherspoon - Jay's blues
TTITLE4=Sonny Parker - Sad feeling
TTITLE5=Sonny Parker - Pretty baby
TTITLE6=Sonny Parker - Helpless
TTITLE7=Sonny Parker - he set my soul on fire
TTITLE8=Sonny Parker - Worried life blues
TTITLE9=Tiny Bradshaw - The blues came pouring down
TTITLE10=Tiny Bradshaw - T-99
TTITLE11=Tiny Bradshaw - The train kept-a-rollin'
TTITLE12=Louis jordan - Let the good time roll
TTITLE13=Bomb Fergusson - Give it up
TTITLE14=Bomb Fergusson - You made me baby
TTITLE15=Eddie Mack - Mercenary papa
TTITLE16=Eddie Mack - Heart throbbing blues
TTITLE17=Piney Brown - How about rocking with me
TTITLE18=Roy Brown - Dreaming blues
TTITLE19=Smiley Lewis - Lowdown
EXTD=Disc two
EXTT0=
EXTT1=
EXTT2=
EXTT3=
EXTT4=
EXTT5=
EXTT6=
EXTT7=
EXTT8=
EXTT9=
EXTT10=
EXTT11=
EXTT12=
EXTT13=
EXTT14=
EXTT15=
EXTT16=
EXTT17=
EXTT18=
EXTT19=
PLAYORDER=
